<?xml version="1.0" encoding="UTF-8" standalone="no"?>
<svg
   xmlns:dc="http://purl.org/dc/elements/1.1/"
   xmlns:cc="http://creativecommons.org/ns#"
   xmlns:rdf="http://www.w3.org/1999/02/22-rdf-syntax-ns#"
   xmlns:svg="http://www.w3.org/2000/svg"
   xmlns="http://www.w3.org/2000/svg"
   xmlns:sodipodi="http://sodipodi.sourceforge.net/DTD/sodipodi-0.dtd"
   xmlns:inkscape="http://www.inkscape.org/namespaces/inkscape"
   id="svg4306"
   width="22"
   height="22"
   version="1.1"
   style="enable-background:new"
   sodipodi:docname="alldesktops.svg"
   inkscape:version="0.92.4 (5da689c313, 2019-01-14)">
  <metadata
     id="metadata24">
    <rdf:RDF>
      <cc:Work
         rdf:about="">
        <dc:format>image/svg+xml</dc:format>
        <dc:type
           rdf:resource="http://purl.org/dc/dcmitype/StillImage" />
        <dc:title></dc:title>
      </cc:Work>
    </rdf:RDF>
  </metadata>
  <defs
     id="defs22" />
  <style
     type="text/css"
     id="current-color-scheme">
      .ColorScheme-Text {
        color:#31363b;
        stop-color:#31363b;
      }
      .ColorScheme-Background {
        color:#eff0f1;
        stop-color:#eff0f1;
      }
      .ColorScheme-Highlight {
        color:#3daee9;
        stop-color:#3daee9;
      }
      .ColorScheme-ViewText {
        color:#31363b;
        stop-color:#31363b;
      }
      .ColorScheme-ViewBackground {
        color:#fcfcfc;
        stop-color:#fcfcfc;
      }
      .ColorScheme-ViewHover {
        color:#93cee9;
        stop-color:#93cee9;
      }
      .ColorScheme-ViewFocus{
        color:#3daee9;
        stop-color:#3daee9;
      }
      .ColorScheme-ButtonText {
        color:#31363b;
        stop-color:#31363b;
      }
      .ColorScheme-ButtonBackground {
        color:#eff0f1;
        stop-color:#eff0f1;
      }
      .ColorScheme-ButtonHover {
        color:#93cee9;
        stop-color:#93cee9;
      }
      .ColorScheme-ButtonFocus{
        color:#3daee9;
        stop-color:#3daee9;
      }
      </style>
  <sodipodi:namedview
     pagecolor="#ffffff"
     bordercolor="#666666"
     borderopacity="1"
     objecttolerance="10"
     gridtolerance="10"
     guidetolerance="10"
     inkscape:pageopacity="0"
     inkscape:pageshadow="2"
     inkscape:window-width="1366"
     inkscape:window-height="700"
     id="namedview20"
     showgrid="true"
     inkscape:zoom="1.3238636"
     inkscape:cx="11"
     inkscape:cy="11"
     inkscape:window-x="0"
     inkscape:window-y="0"
     inkscape:window-maximized="1"
     inkscape:current-layer="svg4306" />
  <g
     id="pressed-center"
     transform="translate(22)"
     inkscape:label="">
    <circle
       r="5"
       cy="11"
       cx="11"
       id="path1026"
       class="ColorScheme-ButtonFocus"
       style="opacity:1;fill:currentColor;fill-opacity:1" />
    <path
       inkscape:connector-curvature="0"
       d="m 11.000041,21.95759 c 6.051736,0 10.957538,-4.905876 10.957538,-10.957685 0,-6.0515762 -4.905802,-10.95748298 -10.957538,-10.95748298 -6.0517104,0 -10.95762989,4.90590678 -10.95762989,10.95748298 0,6.051809 4.90591949,10.957685 10.95762989,10.957685"
       style="fill:#000000;fill-opacity:0;fill-rule:evenodd;stroke:none;stroke-width:0.02563604;enable-background:new"
       id="path14-3-1" />
  </g>
  <g
     id="hover-center"
     inkscape:label="">
    <circle
       r="3"
       cy="11"
       cx="11"
       id="path1026-6"
       class="ColorScheme-Highlight"
       style="opacity:1;fill:currentColor;fill-opacity:1" />
    <path
       inkscape:connector-curvature="0"
       d="m 11.000041,21.95759 c 6.051736,0 10.957538,-4.905876 10.957538,-10.957685 0,-6.0515762 -4.905802,-10.95748298 -10.957538,-10.95748298 -6.0517104,0 -10.95762989,4.90590678 -10.95762989,10.95748298 0,6.051809 4.90591949,10.957685 10.95762989,10.957685"
       style="fill:#000000;fill-opacity:0;fill-rule:evenodd;stroke:none;stroke-width:0.02563604;enable-background:new"
       id="path14-3-1-7" />
  </g>
  <g
     style="enable-background:new"
     id="inactive-center"
     transform="translate(44)"
     inkscape:label="">
    <circle
       r="3"
       cy="11"
       cx="11"
       id="path1026-6-3"
       class="ColorScheme-ViewText"
       style="opacity:0.8;fill:currentColor;fill-opacity:1" />
    <path
       inkscape:connector-curvature="0"
       d="m 11.000041,21.95759 c 6.051736,0 10.957538,-4.905876 10.957538,-10.957685 0,-6.0515762 -4.905802,-10.95748298 -10.957538,-10.95748298 -6.0517104,0 -10.95762989,4.90590678 -10.95762989,10.95748298 0,6.051809 4.90591949,10.957685 10.95762989,10.957685"
       style="fill:#000000;fill-opacity:0;fill-rule:evenodd;stroke:none;stroke-width:0.02563604;enable-background:new"
       id="path14-3-1-7-5" />
  </g>
  <g
     style="enable-background:new"
     id="deactivated-center"
     transform="translate(66)"
     inkscape:label="">
    <circle
       r="3"
       cy="11"
       cx="11"
       id="path1026-6-2"
       class="ColorScheme-ViewText"
       style="opacity:0.8;fill:currentColor;fill-opacity:1" />
    <path
       inkscape:connector-curvature="0"
       d="m 11.000041,21.95759 c 6.051736,0 10.957538,-4.905876 10.957538,-10.957685 0,-6.0515762 -4.905802,-10.95748298 -10.957538,-10.95748298 -6.0517104,0 -10.95762989,4.90590678 -10.95762989,10.95748298 0,6.051809 4.90591949,10.957685 10.95762989,10.957685"
       style="fill:#000000;fill-opacity:0;fill-rule:evenodd;stroke:none;stroke-width:0.02563604;enable-background:new"
       id="path14-3-1-7-9" />
  </g>
  <g
     style="enable-background:new"
     id="active-center"
     transform="translate(-22)"
     inkscape:label="">
    <circle
       r="3"
       cy="11"
       cx="11"
       id="path1026-6-27"
       class="ColorScheme-ViewText"
       style="opacity:1;fill:currentColor;fill-opacity:1" />
    <path
       inkscape:connector-curvature="0"
       d="m 11.000041,21.95759 c 6.051736,0 10.957538,-4.905876 10.957538,-10.957685 0,-6.0515762 -4.905802,-10.95748298 -10.957538,-10.95748298 -6.0517104,0 -10.95762989,4.90590678 -10.95762989,10.95748298 0,6.051809 4.90591949,10.957685 10.95762989,10.957685"
       style="fill:#000000;fill-opacity:0;fill-rule:evenodd;stroke:none;stroke-width:0.02563604;enable-background:new"
       id="path14-3-1-7-0" />
  </g>
  <path
     style="font-style:normal;font-variant:normal;font-weight:normal;font-stretch:normal;font-size:16px;line-height:1.25;font-family:'Abyssinica SIL';-inkscape-font-specification:'Abyssinica SIL';letter-spacing:0px;word-spacing:0px;fill:#ffffff;fill-opacity:1;stroke:none;stroke-width:0.59423786;enable-background:new"
     d="m 14.65467,-27.262793 c -0.07686,0 -0.149292,0.0162 -0.217286,0.0486 -0.06799,0.02916 -0.128598,0.07129 -0.181811,0.126368 -0.05026,0.05508 -0.09017,0.119888 -0.119729,0.194413 -0.02956,0.07452 -0.04434,0.15391 -0.04434,0.238156 0,0.08425 0.01478,0.16525 0.04434,0.243015 0.02956,0.07453 0.06947,0.139329 0.119729,0.194413 0.05321,0.05508 0.113817,0.09883 0.181811,0.131228 0.06799,0.0324 0.140423,0.0486 0.217286,0.0486 0.07686,0 0.149292,-0.0162 0.217286,-0.0486 0.06799,-0.0324 0.12712,-0.07614 0.177377,-0.131228 0.05026,-0.05508 0.08869,-0.119887 0.115295,-0.194413 0.02956,-0.07776 0.04434,-0.15877 0.04434,-0.243015 0,-0.08425 -0.01478,-0.163631 -0.04434,-0.238156 -0.02661,-0.07453 -0.06504,-0.139329 -0.115295,-0.194413 -0.05026,-0.05508 -0.109382,-0.09721 -0.177377,-0.126368 -0.06799,-0.0324 -0.140423,-0.0486 -0.217286,-0.0486 z m 18.753125,0.729047 c -0.310409,0 -0.597167,0.05832 -0.860276,0.174972 -0.260152,0.116647 -0.484829,0.30458 -0.67403,0.563797 -0.186246,0.259217 -0.332581,0.599439 -0.439007,1.020667 -0.106426,0.417987 -0.159639,0.928321 -0.159639,1.531 0,0.60592 0.05469,1.104913 0.164073,1.496978 0.109382,0.388826 0.255718,0.696646 0.439007,0.923461 0.183289,0.226814 0.394663,0.385585 0.634121,0.476311 0.239458,0.08749 0.489263,0.131228 0.749415,0.131228 0.260152,0 0.512914,-0.04212 0.758285,-0.126367 0.248327,-0.08425 0.467091,-0.213854 0.656292,-0.388826 0.189202,-0.174972 0.34145,-0.396926 0.456744,-0.665864 0.115295,-0.268938 0.172943,-0.588099 0.172943,-0.957483 0,-0.246256 -0.02661,-0.46659 -0.07982,-0.661003 -0.05026,-0.194413 -0.119729,-0.364524 -0.208417,-0.510333 -0.08573,-0.14905 -0.187724,-0.273798 -0.305974,-0.374245 -0.115295,-0.103687 -0.23798,-0.187932 -0.368057,-0.252736 -0.130075,-0.0648 -0.263108,-0.111788 -0.399097,-0.14095 -0.135988,-0.02916 -0.266064,-0.04374 -0.390228,-0.04374 -0.162595,0 -0.311887,0.0162 -0.447875,0.0486 -0.135989,0.0324 -0.258674,0.07614 -0.368057,0.131228 -0.109381,0.05184 -0.20546,0.113408 -0.288236,0.184692 -0.08278,0.07128 -0.153726,0.14581 -0.212852,0.223575 0.04434,-0.447149 0.09904,-0.810053 0.164073,-1.088711 0.06799,-0.278659 0.149292,-0.495753 0.243893,-0.651283 0.0946,-0.15553 0.205461,-0.260837 0.332581,-0.31592 0.12712,-0.05508 0.270499,-0.08263 0.430138,-0.08263 0.138945,0 0.25424,0.02592 0.345884,0.07776 0.09164,0.05184 0.165551,0.118268 0.22172,0.199273 0.05617,0.07776 0.0946,0.166871 0.115295,0.267318 0.02365,0.09721 0.03548,0.191172 0.03548,0.281898 h 0.962267 c 0,-0.207373 -0.03991,-0.400166 -0.119728,-0.578378 -0.07982,-0.178212 -0.193636,-0.333742 -0.34145,-0.466591 -0.147814,-0.132848 -0.32519,-0.236535 -0.53213,-0.31106 -0.206939,-0.07776 -0.43605,-0.116648 -0.687333,-0.116648 z m -10.008466,0.184693 c -0.03548,0.05184 -0.103469,0.124748 -0.203983,0.218714 -0.100513,0.09397 -0.212852,0.192793 -0.337015,0.296479 -0.124164,0.100447 -0.252762,0.196033 -0.385794,0.286759 -0.130076,0.09073 -0.245371,0.15877 -0.345884,0.204134 v 0.957483 c 0.08869,-0.02916 0.192158,-0.06967 0.310409,-0.121509 0.118251,-0.05508 0.23798,-0.115027 0.359187,-0.179832 0.121207,-0.06804 0.236502,-0.139329 0.345884,-0.213854 0.112339,-0.07776 0.206939,-0.15553 0.283802,-0.233295 v 4.918642 h 0.926792 v -6.133721 z m 5.241474,0 -2.314763,3.635518 v 1.185918 h 2.669516 v 1.312285 h 0.917923 v -1.312285 h 0.598645 v -0.889439 h -0.598645 v -3.931997 z m 9.808917,0 -2.314763,3.635518 v 1.185918 h 2.669516 v 1.312285 h 0.917923 v -1.312285 h 0.598645 v -0.889439 h -0.598645 v -3.931997 z m -9.454164,0.738768 v 3.193229 h -1.982182 z m 9.808917,0 v 3.193229 h -1.982182 z m -24.065549,0.476311 -1.117471,0.379105 v 0.330502 h 0.642989 v 4.418029 c 0,0.191173 -0.0074,0.372624 -0.02217,0.544356 -0.01182,0.174971 -0.03547,0.332122 -0.07095,0.471451 -0.03252,0.142569 -0.07686,0.264077 -0.133032,0.364524 -0.05617,0.103687 -0.125642,0.181452 -0.208417,0.233295 l -0.882448,-0.665863 c -0.04434,0.0162 -0.09017,0.03888 -0.137467,0.06804 -0.0473,0.0324 -0.08869,0.07128 -0.124164,0.116647 -0.03843,0.0486 -0.06947,0.103687 -0.09312,0.165252 -0.02365,0.0648 -0.03547,0.139329 -0.03547,0.223574 0,0.09397 0.01921,0.174971 0.05765,0.243016 0.03547,0.07128 0.08573,0.129608 0.15077,0.174972 0.06208,0.04536 0.13451,0.07776 0.217286,0.09721 0.08278,0.02268 0.171464,0.03402 0.266065,0.03402 0.286758,0 0.561692,-0.07615 0.8248,-0.228435 0.266065,-0.14905 0.49222,-0.380725 0.678465,-0.695026 0.07686,-0.132848 0.138945,-0.283518 0.186245,-0.452009 0.0473,-0.168491 0.08278,-0.341843 0.106426,-0.520054 0.02661,-0.178212 0.04434,-0.354803 0.05321,-0.529775 0.0089,-0.178212 0.0133,-0.341843 0.0133,-0.490892 v -4.281941 z m 2.496574,0 -1.117472,0.388825 v 0.340223 h 0.634121 v 2.697477 c 0,0.281898 0.02809,0.524914 0.08425,0.729048 0.05913,0.200893 0.141901,0.367764 0.248327,0.500613 0.109382,0.129608 0.240936,0.225194 0.394662,0.286758 0.156683,0.0648 0.332581,0.09721 0.527695,0.09721 0.133032,0 0.269021,-0.0243 0.407966,-0.0729 0.141901,-0.04536 0.276412,-0.102067 0.403532,-0.170111 0.130076,-0.07128 0.249805,-0.14743 0.359187,-0.228436 0.112338,-0.08101 0.206939,-0.153909 0.283802,-0.218714 v 0.568657 h 1.441184 v -0.388825 l -0.399097,-0.02916 c -0.05321,-0.0065 -0.100513,-0.02916 -0.141901,-0.06805 -0.03843,-0.03888 -0.05765,-0.0891 -0.05765,-0.150669 v -4.281941 h -0.372491 l -1.108603,0.388825 v 0.340223 h 0.638556 v 3.334178 c -0.05321,0.02916 -0.118251,0.06157 -0.195114,0.09721 -0.07391,0.0324 -0.153726,0.0648 -0.239459,0.09721 -0.08573,0.02916 -0.175897,0.05346 -0.270498,0.0729 -0.0946,0.01944 -0.187724,0.02916 -0.279369,0.02916 -0.159638,0 -0.295627,-0.0243 -0.407965,-0.07291 -0.112338,-0.05184 -0.203983,-0.126368 -0.274934,-0.223575 -0.06799,-0.09721 -0.118251,-0.215474 -0.15077,-0.354803 -0.02956,-0.139329 -0.04434,-0.296479 -0.04434,-0.47145 v -3.236973 z m 16.065871,1.443515 c 0.144857,0 0.280846,0.03726 0.407966,0.111787 0.127119,0.07128 0.236502,0.170111 0.328146,0.29648 0.0946,0.123128 0.168508,0.268937 0.221721,0.437428 0.05617,0.168491 0.08425,0.348323 0.08425,0.539496 0,0.191172 -0.02808,0.372624 -0.08425,0.544356 -0.05321,0.16849 -0.12712,0.31592 -0.221721,0.442288 -0.09164,0.126369 -0.201027,0.226815 -0.328146,0.30134 -0.12712,0.07128 -0.263109,0.106927 -0.407966,0.106927 -0.141901,0 -0.276412,-0.03564 -0.403532,-0.106927 -0.127119,-0.07453 -0.239458,-0.174971 -0.337015,-0.30134 -0.0946,-0.126368 -0.169986,-0.273798 -0.226155,-0.442288 -0.05321,-0.171732 -0.07982,-0.353184 -0.07982,-0.544356 0,-0.191173 0.02661,-0.371005 0.07982,-0.539496 0.05617,-0.168491 0.131555,-0.3143 0.226155,-0.437428 0.09756,-0.126369 0.209896,-0.225195 0.337015,-0.29648 0.12712,-0.07453 0.261631,-0.111787 0.403532,-0.111787 z"
     id="text841"
     inkscape:connector-curvature="0" />
</svg>
