<?xml version="1.0" encoding="UTF-8" standalone="no"?>
<svg
   xmlns:dc="http://purl.org/dc/elements/1.1/"
   xmlns:cc="http://creativecommons.org/ns#"
   xmlns:rdf="http://www.w3.org/1999/02/22-rdf-syntax-ns#"
   xmlns:svg="http://www.w3.org/2000/svg"
   xmlns="http://www.w3.org/2000/svg"
   xmlns:sodipodi="http://sodipodi.sourceforge.net/DTD/sodipodi-0.dtd"
   xmlns:inkscape="http://www.inkscape.org/namespaces/inkscape"
   id="svg4306"
   width="22"
   height="22"
   version="1.1"
   style="enable-background:new"
   sodipodi:docname="close.svg"
   inkscape:version="0.92.4 (5da689c313, 2019-01-14)">
  <metadata
     id="metadata24">
    <rdf:RDF>
      <cc:Work
         rdf:about="">
        <dc:format>image/svg+xml</dc:format>
        <dc:type
           rdf:resource="http://purl.org/dc/dcmitype/StillImage" />
        <dc:title></dc:title>
      </cc:Work>
    </rdf:RDF>
  </metadata>
  <defs
     id="defs22" />
  <style
     type="text/css"
     id="current-color-scheme">
      .ColorScheme-Text {
        color:#31363b;
        stop-color:#31363b;
      }
      .ColorScheme-Background {
        color:#eff0f1;
        stop-color:#eff0f1;
      }
      .ColorScheme-Highlight {
        color:#3daee9;
        stop-color:#3daee9;
      }
      .ColorScheme-ViewText {
        color:#31363b;
        stop-color:#31363b;
      }
      .ColorScheme-ViewBackground {
        color:#fcfcfc;
        stop-color:#fcfcfc;
      }
      .ColorScheme-ViewHover {
        color:#93cee9;
        stop-color:#93cee9;
      }
      .ColorScheme-ViewFocus{
        color:#3daee9;
        stop-color:#3daee9;
      }
      .ColorScheme-ButtonText {
        color:#31363b;
        stop-color:#31363b;
      }
      .ColorScheme-ButtonBackground {
        color:#eff0f1;
        stop-color:#eff0f1;
      }
      .ColorScheme-ButtonHover {
        color:#93cee9;
        stop-color:#93cee9;
      }
      .ColorScheme-ButtonFocus{
        color:#3daee9;
        stop-color:#3daee9;
      }
      </style>
  <sodipodi:namedview
     pagecolor="#ffffff"
     bordercolor="#666666"
     borderopacity="1"
     objecttolerance="10"
     gridtolerance="10"
     guidetolerance="10"
     inkscape:pageopacity="0"
     inkscape:pageshadow="2"
     inkscape:window-width="1366"
     inkscape:window-height="700"
     id="namedview20"
     showgrid="true"
     inkscape:zoom="3.7444518"
     inkscape:cx="11"
     inkscape:cy="11"
     inkscape:window-x="0"
     inkscape:window-y="0"
     inkscape:window-maximized="1"
     inkscape:current-layer="svg4306"
     showguides="true"
     inkscape:guide-bbox="true" />
  <g
     id="g4778-2-68-5"
     transform="matrix(1.375,0,0,1.375,0,-0.18261375)"
     style="fill:#ffffff;fill-opacity:1">
    <g
       style="display:inline;fill:#ffffff;fill-opacity:1"
       id="layer9-9-4-4-3"
       transform="translate(-60,-518)" />
    <g
       id="layer10-2-1-8-5"
       transform="translate(-60,-518)"
       style="fill:#ffffff;fill-opacity:1" />
    <g
       id="layer11-16-4-9-6"
       transform="translate(-60,-518)"
       style="fill:#ffffff;fill-opacity:1" />
    <g
       transform="matrix(0.75,0,0,0.75,2,2.0546875)"
       id="g2996-76-5-2"
       style="fill:#ffffff;fill-opacity:1">
      <g
         transform="translate(-60,-518)"
         id="layer12-4-5-7-9"
         style="fill:#ffffff;fill-opacity:1">
        <g
           transform="translate(19,-242)"
           id="layer4-4-1-9-5-1"
           style="display:inline;fill:#ffffff;fill-opacity:1" />
      </g>
    </g>
    <g
       id="layer13-2-6-11-2"
       transform="translate(-60,-518)"
       style="fill:#ffffff;fill-opacity:1" />
    <g
       id="layer14-4-0-33-7"
       transform="translate(-60,-518)"
       style="fill:#ffffff;fill-opacity:1" />
    <g
       id="layer15-7-3-0-0"
       transform="translate(-60,-518)"
       style="fill:#ffffff;fill-opacity:1" />
  </g>
  <g
     transform="matrix(1.375,0,0,1.375,-1960.75,-339.625)"
     style="display:inline;opacity:1;fill:#ececec"
     id="g4490-6-5-2">
    <g
       id="g4092-0-2-21-0"
       style="display:inline;fill:#ececec"
       transform="translate(58)" />
  </g>
  <g
     transform="matrix(1.375,0,0,1.375,-82.5,-712.43261)"
     id="layer9-9-4-4"
     style="display:inline;fill:#ececec;fill-opacity:1" />
  <g
     style="fill:#ececec;fill-opacity:1"
     transform="matrix(1.375,0,0,1.375,-82.5,-712.43261)"
     id="layer10-2-1-8" />
  <g
     style="fill:#ececec;fill-opacity:1"
     transform="matrix(1.375,0,0,1.375,-82.5,-712.43261)"
     id="layer11-16-4-9" />
  <g
     style="fill:#ececec;fill-opacity:1"
     transform="matrix(1.375,0,0,1.375,-82.5,-712.43261)"
     id="layer13-2-6-11" />
  <g
     style="fill:#ececec;fill-opacity:1"
     transform="matrix(1.375,0,0,1.375,-82.5,-712.43261)"
     id="layer14-4-0-33" />
  <g
     style="fill:#ececec;fill-opacity:1"
     transform="matrix(1.375,0,0,1.375,-82.5,-712.43261)"
     id="layer15-7-3-0" />
  <g
     id="g4778-2-68-5-3"
     transform="matrix(1.125,0,0,1.125,2,-20.149411)"
     style="fill:#ffffff;fill-opacity:1">
    <g
       style="display:inline;fill:#ffffff;fill-opacity:1"
       id="layer9-9-4-4-3-6"
       transform="translate(-60,-518)" />
    <g
       id="layer10-2-1-8-5-7"
       transform="translate(-60,-518)"
       style="fill:#ffffff;fill-opacity:1" />
    <g
       id="layer11-16-4-9-6-5"
       transform="translate(-60,-518)"
       style="fill:#ffffff;fill-opacity:1" />
    <g
       transform="matrix(0.75,0,0,0.75,2,2.0546875)"
       id="g2996-76-5-2-3"
       style="fill:#ffffff;fill-opacity:1">
      <g
         transform="translate(-60,-518)"
         id="layer12-4-5-7-9-5"
         style="fill:#ffffff;fill-opacity:1">
        <g
           transform="translate(19,-242)"
           id="layer4-4-1-9-5-1-6"
           style="display:inline;fill:#ffffff;fill-opacity:1" />
      </g>
    </g>
    <g
       id="layer13-2-6-11-2-2"
       transform="translate(-60,-518)"
       style="fill:#ffffff;fill-opacity:1" />
    <g
       id="layer14-4-0-33-7-9"
       transform="translate(-60,-518)"
       style="fill:#ffffff;fill-opacity:1" />
    <g
       id="layer15-7-3-0-0-1"
       transform="translate(-60,-518)"
       style="fill:#ffffff;fill-opacity:1" />
  </g>
  <g
     transform="matrix(1.125,0,0,1.125,-1602.25,-297.875)"
     style="display:inline;opacity:1;fill:#ececec"
     id="g4490-6-5-2-2">
    <g
       id="g4092-0-2-21-0-7"
       style="display:inline;fill:#ececec"
       transform="translate(58)" />
  </g>
  <g
     transform="matrix(1.125,0,0,1.125,-65.5,-602.89941)"
     id="layer9-9-4-4-0"
     style="display:inline;fill:#ececec;fill-opacity:1" />
  <g
     style="fill:#ececec;fill-opacity:1"
     transform="matrix(1.125,0,0,1.125,-65.5,-602.89941)"
     id="layer10-2-1-8-9" />
  <g
     style="fill:#ececec;fill-opacity:1"
     transform="matrix(1.125,0,0,1.125,-65.5,-602.89941)"
     id="layer11-16-4-9-3" />
  <g
     style="fill:#ececec;fill-opacity:1"
     transform="matrix(1.125,0,0,1.125,-65.5,-602.89941)"
     id="layer13-2-6-11-6" />
  <g
     style="fill:#ececec;fill-opacity:1"
     transform="matrix(1.125,0,0,1.125,-65.5,-602.89941)"
     id="layer14-4-0-33-0" />
  <g
     style="fill:#ececec;fill-opacity:1"
     transform="matrix(1.125,0,0,1.125,-65.5,-602.89941)"
     id="layer15-7-3-0-6" />
  <g
     id="hover-center"
     inkscape:label="">
    <rect
       y="3.5986327e-06"
       x="0"
       height="22"
       width="22"
       id="rect17883-39"
       style="display:inline;opacity:1;fill:none;fill-opacity:1;stroke:none;stroke-width:1.375;stroke-linecap:butt;stroke-linejoin:miter;stroke-miterlimit:4;stroke-dasharray:none;stroke-dashoffset:0;stroke-opacity:0" />
    <path
       id="path4068-7-5-9-6-2"
       class="ColorScheme-Highlight"
       d="M 11,3.125 A 7.875,7.875 0 0 0 3.125,11 7.875,7.875 0 0 0 11,18.875 7.875,7.875 0 0 0 18.875,11 7.875,7.875 0 0 0 11,3.125 Z M 7.625,7.537109 h 0.84375 c 0.00875,-1.01e-4 0.017542,-3.88e-4 0.026367,0 0.2151149,0.0095 0.4302028,0.10849 0.5800782,0.263672 L 11,9.725586 12.951172,7.800781 C 13.175293,7.606297 13.328051,7.543016 13.53125,7.537109 H 14.375 v 0.84375 c 0,0.241709 -0.02898,0.464611 -0.210937,0.632813 l -1.924805,1.924805 1.898437,1.898437 c 0.158783,0.158769 0.237298,0.382599 0.237305,0.606445 v 0.84375 h -0.84375 c -0.223848,-9e-6 -0.447682,-0.07855 -0.606445,-0.237304 L 11,12.125 9.0751953,14.049805 C 8.9164319,14.208591 8.6925884,14.287109 8.46875,14.287109 H 7.625 v -0.84375 c -2.6e-6,-0.223838 0.078519,-0.447676 0.2373047,-0.606445 L 9.7871094,10.938477 7.8623047,9.013672 C 7.6844911,8.849453 7.6065134,8.617742 7.625,8.380859 Z"
       style="opacity:1;fill:currentColor;fill-opacity:1"
       inkscape:connector-curvature="0" />
  </g>
  <g
     style="enable-background:new"
     id="active-center"
     inkscape:label=""
     transform="translate(-22)">
    <rect
       y="3.5986327e-06"
       x="0"
       height="22"
       width="22"
       id="rect17883-39-8"
       style="display:inline;opacity:1;fill:none;fill-opacity:1;stroke:none;stroke-width:1.375;stroke-linecap:butt;stroke-linejoin:miter;stroke-miterlimit:4;stroke-dasharray:none;stroke-dashoffset:0;stroke-opacity:0" />
    <path
       id="path4068-7-5-9-6-2-7"
       class="ColorScheme-ButtonFocus"
       d="M 11,3.125 A 7.875,7.875 0 0 0 3.125,11 7.875,7.875 0 0 0 11,18.875 7.875,7.875 0 0 0 18.875,11 7.875,7.875 0 0 0 11,3.125 Z M 7.625,7.537109 h 0.84375 c 0.00875,-1.01e-4 0.017542,-3.88e-4 0.026367,0 0.2151149,0.0095 0.4302028,0.10849 0.5800782,0.263672 L 11,9.725586 12.951172,7.800781 C 13.175293,7.606297 13.328051,7.543016 13.53125,7.537109 H 14.375 v 0.84375 c 0,0.241709 -0.02898,0.464611 -0.210937,0.632813 l -1.924805,1.924805 1.898437,1.898437 c 0.158783,0.158769 0.237298,0.382599 0.237305,0.606445 v 0.84375 h -0.84375 c -0.223848,-9e-6 -0.447682,-0.07855 -0.606445,-0.237304 L 11,12.125 9.0751953,14.049805 C 8.9164319,14.208591 8.6925884,14.287109 8.46875,14.287109 H 7.625 v -0.84375 c -2.6e-6,-0.223838 0.078519,-0.447676 0.2373047,-0.606445 L 9.7871094,10.938477 7.8623047,9.013672 C 7.6844911,8.849453 7.6065134,8.617742 7.625,8.380859 Z"
       style="opacity:1;fill:currentColor;fill-opacity:1"
       inkscape:connector-curvature="0" />
  </g>
  <g
     style="enable-background:new"
     id="pressed-center"
     inkscape:label=""
     transform="translate(22)">
    <rect
       y="3.5986327e-06"
       x="0"
       height="22"
       width="22"
       id="rect17883-39-2"
       style="display:inline;opacity:1;fill:none;fill-opacity:1;stroke:none;stroke-width:1.375;stroke-linecap:butt;stroke-linejoin:miter;stroke-miterlimit:4;stroke-dasharray:none;stroke-dashoffset:0;stroke-opacity:0" />
    <path
       id="path4068-7-5-9-6-2-0"
       class="ColorScheme-ButtonFocus"
       d="M 11,3.125 A 7.875,7.875 0 0 0 3.125,11 7.875,7.875 0 0 0 11,18.875 7.875,7.875 0 0 0 18.875,11 7.875,7.875 0 0 0 11,3.125 Z M 7.625,7.537109 h 0.84375 c 0.00875,-1.01e-4 0.017542,-3.88e-4 0.026367,0 0.2151149,0.0095 0.4302028,0.10849 0.5800782,0.263672 L 11,9.725586 12.951172,7.800781 C 13.175293,7.606297 13.328051,7.543016 13.53125,7.537109 H 14.375 v 0.84375 c 0,0.241709 -0.02898,0.464611 -0.210937,0.632813 l -1.924805,1.924805 1.898437,1.898437 c 0.158783,0.158769 0.237298,0.382599 0.237305,0.606445 v 0.84375 h -0.84375 c -0.223848,-9e-6 -0.447682,-0.07855 -0.606445,-0.237304 L 11,12.125 9.0751953,14.049805 C 8.9164319,14.208591 8.6925884,14.287109 8.46875,14.287109 H 7.625 v -0.84375 c -2.6e-6,-0.223838 0.078519,-0.447676 0.2373047,-0.606445 L 9.7871094,10.938477 7.8623047,9.013672 C 7.6844911,8.849453 7.6065134,8.617742 7.625,8.380859 Z"
       style="opacity:1;fill:currentColor;fill-opacity:1"
       inkscape:connector-curvature="0" />
  </g>
  <g
     style="enable-background:new"
     id="inactive-center"
     inkscape:label=""
     transform="translate(44)">
    <rect
       y="3.5986327e-06"
       x="0"
       height="22"
       width="22"
       id="rect17883-39-3"
       style="display:inline;opacity:1;fill:none;fill-opacity:1;stroke:none;stroke-width:1.375;stroke-linecap:butt;stroke-linejoin:miter;stroke-miterlimit:4;stroke-dasharray:none;stroke-dashoffset:0;stroke-opacity:0" />
    <path
       id="path4068-7-5-9-6-2-75"
       class="ColorScheme-ViewText"
       d="M 11,3.125 A 7.875,7.875 0 0 0 3.125,11 7.875,7.875 0 0 0 11,18.875 7.875,7.875 0 0 0 18.875,11 7.875,7.875 0 0 0 11,3.125 Z M 7.625,7.537109 h 0.84375 c 0.00875,-1.01e-4 0.017542,-3.88e-4 0.026367,0 0.2151149,0.0095 0.4302028,0.10849 0.5800782,0.263672 L 11,9.725586 12.951172,7.800781 C 13.175293,7.606297 13.328051,7.543016 13.53125,7.537109 H 14.375 v 0.84375 c 0,0.241709 -0.02898,0.464611 -0.210937,0.632813 l -1.924805,1.924805 1.898437,1.898437 c 0.158783,0.158769 0.237298,0.382599 0.237305,0.606445 v 0.84375 h -0.84375 c -0.223848,-9e-6 -0.447682,-0.07855 -0.606445,-0.237304 L 11,12.125 9.0751953,14.049805 C 8.9164319,14.208591 8.6925884,14.287109 8.46875,14.287109 H 7.625 v -0.84375 c -2.6e-6,-0.223838 0.078519,-0.447676 0.2373047,-0.606445 L 9.7871094,10.938477 7.8623047,9.013672 C 7.6844911,8.849453 7.6065134,8.617742 7.625,8.380859 Z"
       style="opacity:1;fill:currentColor;fill-opacity:1"
       inkscape:connector-curvature="0" />
  </g>
  <g
     style="enable-background:new"
     id="deactivated-center"
     inkscape:label=""
     transform="translate(66)">
    <rect
       y="3.5986327e-06"
       x="0"
       height="22"
       width="22"
       id="rect17883-39-28"
       style="display:inline;opacity:1;fill:none;fill-opacity:1;stroke:none;stroke-width:1.375;stroke-linecap:butt;stroke-linejoin:miter;stroke-miterlimit:4;stroke-dasharray:none;stroke-dashoffset:0;stroke-opacity:0" />
    <path
       id="path4068-7-5-9-6-2-9"
       class="ColorScheme-ViewText"
       d="M 11,3.125 A 7.875,7.875 0 0 0 3.125,11 7.875,7.875 0 0 0 11,18.875 7.875,7.875 0 0 0 18.875,11 7.875,7.875 0 0 0 11,3.125 Z M 7.625,7.537109 h 0.84375 c 0.00875,-1.01e-4 0.017542,-3.88e-4 0.026367,0 0.2151149,0.0095 0.4302028,0.10849 0.5800782,0.263672 L 11,9.725586 12.951172,7.800781 C 13.175293,7.606297 13.328051,7.543016 13.53125,7.537109 H 14.375 v 0.84375 c 0,0.241709 -0.02898,0.464611 -0.210937,0.632813 l -1.924805,1.924805 1.898437,1.898437 c 0.158783,0.158769 0.237298,0.382599 0.237305,0.606445 v 0.84375 h -0.84375 c -0.223848,-9e-6 -0.447682,-0.07855 -0.606445,-0.237304 L 11,12.125 9.0751953,14.049805 C 8.9164319,14.208591 8.6925884,14.287109 8.46875,14.287109 H 7.625 v -0.84375 c -2.6e-6,-0.223838 0.078519,-0.447676 0.2373047,-0.606445 L 9.7871094,10.938477 7.8623047,9.013672 C 7.6844911,8.849453 7.6065134,8.617742 7.625,8.380859 Z"
       style="opacity:1;fill:currentColor;fill-opacity:1"
       inkscape:connector-curvature="0" />
  </g>
  <path
     style="font-style:normal;font-variant:normal;font-weight:normal;font-stretch:normal;font-size:16px;line-height:1.25;font-family:'Abyssinica SIL';-inkscape-font-specification:'Abyssinica SIL';letter-spacing:0px;word-spacing:0px;fill:#ffffff;fill-opacity:1;stroke:none;stroke-width:0.59423786;enable-background:new"
     d="m -0.56785169,-34.740523 c -0.076863,0 -0.1492918,0.0162 -0.2172861,0.0486 -0.067994,0.02916 -0.1285979,0.07129 -0.1818109,0.126368 -0.050257,0.05508 -0.090166,0.119888 -0.11972911,0.194413 -0.029563,0.07452 -0.044344,0.15391 -0.044344,0.238156 0,0.08425 0.014781,0.16525 0.044344,0.243015 0.029563,0.07453 0.069473,0.139329 0.11972911,0.194413 0.053213,0.05508 0.1138166,0.09883 0.1818109,0.131228 0.067994,0.0324 0.140423,0.0486 0.2172861,0.0486 0.076863,0 0.1492919,-0.0162 0.2172862,-0.0486 0.067994,-0.0324 0.1271197,-0.07614 0.1773764,-0.131228 0.050257,-0.05508 0.088688,-0.119887 0.1152947,-0.194413 0.029563,-0.07776 0.044344,-0.15877 0.044344,-0.243015 0,-0.08425 -0.014781,-0.163631 -0.044344,-0.238156 -0.026606,-0.07453 -0.065038,-0.139329 -0.1152947,-0.194413 -0.050257,-0.05508 -0.1093822,-0.09721 -0.1773764,-0.126368 -0.067994,-0.0324 -0.1404231,-0.0486 -0.2172862,-0.0486 z m 18.75312469,0.729047 c -0.310409,0 -0.597167,0.05832 -0.860276,0.174972 -0.260152,0.116647 -0.484829,0.30458 -0.67403,0.563797 -0.186246,0.259217 -0.332581,0.599439 -0.439007,1.020667 -0.106426,0.417987 -0.159639,0.928321 -0.159639,1.531 0,0.60592 0.05469,1.104913 0.164073,1.496978 0.109382,0.388826 0.255718,0.696646 0.439007,0.923461 0.183289,0.226814 0.394663,0.385585 0.634121,0.476311 0.239458,0.08749 0.489263,0.131228 0.749415,0.131228 0.260152,0 0.512914,-0.04212 0.758285,-0.126367 0.248327,-0.08425 0.467091,-0.213854 0.656292,-0.388826 0.189202,-0.174972 0.34145,-0.396926 0.456744,-0.665864 0.115295,-0.268938 0.172943,-0.588099 0.172943,-0.957483 0,-0.246256 -0.02661,-0.46659 -0.07982,-0.661003 -0.05026,-0.194413 -0.119729,-0.364524 -0.208417,-0.510333 -0.08573,-0.14905 -0.187724,-0.273798 -0.305974,-0.374245 -0.115295,-0.103687 -0.23798,-0.187932 -0.368057,-0.252736 -0.130075,-0.0648 -0.263108,-0.111788 -0.399097,-0.14095 -0.135988,-0.02916 -0.266064,-0.04374 -0.390228,-0.04374 -0.162595,0 -0.311887,0.0162 -0.447875,0.0486 -0.135989,0.0324 -0.258674,0.07614 -0.368057,0.131228 -0.109381,0.05184 -0.20546,0.113408 -0.288236,0.184692 -0.08278,0.07128 -0.153726,0.14581 -0.212852,0.223575 0.04434,-0.447149 0.09904,-0.810053 0.164073,-1.088711 0.06799,-0.278659 0.149292,-0.495753 0.243893,-0.651283 0.0946,-0.15553 0.205461,-0.260837 0.332581,-0.31592 0.12712,-0.05508 0.270499,-0.08263 0.430138,-0.08263 0.138945,0 0.25424,0.02592 0.345884,0.07776 0.09164,0.05184 0.165551,0.118268 0.22172,0.199273 0.05617,0.07776 0.0946,0.166871 0.115295,0.267318 0.02365,0.09721 0.03548,0.191172 0.03548,0.281898 h 0.962267 c 0,-0.207373 -0.03991,-0.400166 -0.119728,-0.578378 -0.07982,-0.178212 -0.193636,-0.333742 -0.34145,-0.466591 -0.147814,-0.132848 -0.32519,-0.236535 -0.53213,-0.31106 -0.206939,-0.07776 -0.43605,-0.116648 -0.687333,-0.116648 z m -10.0084664,0.184693 c -0.03548,0.05184 -0.103469,0.124748 -0.203983,0.218714 -0.100513,0.09397 -0.212852,0.192793 -0.337015,0.296479 -0.124164,0.100447 -0.252762,0.196033 -0.3857936,0.286759 -0.130076,0.09073 -0.245371,0.15877 -0.345884,0.204134 v 0.957483 c 0.08869,-0.02916 0.192158,-0.06967 0.310409,-0.121509 0.118251,-0.05508 0.2379796,-0.115027 0.3591866,-0.179832 0.121207,-0.06804 0.236502,-0.139329 0.345884,-0.213854 0.112339,-0.07776 0.206939,-0.15553 0.283802,-0.233295 v 4.918642 h 0.926792 v -6.133721 z m 5.2414744,0 -2.314763,3.635518 v 1.185918 h 2.669516 v 1.312285 h 0.917923 v -1.312285 h 0.598645 v -0.889439 h -0.598645 v -3.931997 z m 9.808917,0 -2.314763,3.635518 v 1.185918 h 2.669516 v 1.312285 h 0.917923 v -1.312285 h 0.598645 v -0.889439 h -0.598645 v -3.931997 z m -9.454164,0.738768 v 3.193229 h -1.982182 z m 9.808917,0 v 3.193229 h -1.982182 z m -24.06554889,0.476311 -1.11747151,0.379105 v 0.330502 h 0.64298961 v 4.418029 c 0,0.191173 -0.00739,0.372624 -0.022172,0.544356 -0.011825,0.174971 -0.035475,0.332122 -0.070951,0.471451 -0.032519,0.142569 -0.076863,0.264077 -0.1330323,0.364524 -0.056169,0.103687 -0.1256417,0.181452 -0.2084173,0.233295 l -0.8824478,-0.665863 c -0.044344,0.0162 -0.090166,0.03888 -0.1374668,0.06804 -0.0473,0.0324 -0.088688,0.07128 -0.1241635,0.116647 -0.038432,0.0486 -0.069472,0.103687 -0.093123,0.165252 -0.02365,0.0648 -0.035475,0.139329 -0.035475,0.223574 0,0.09397 0.019216,0.174971 0.057647,0.243016 0.035475,0.07128 0.085732,0.129608 0.15077,0.174972 0.062082,0.04536 0.1345104,0.07776 0.2172862,0.09721 0.082776,0.02268 0.1714638,0.03402 0.2660646,0.03402 0.2867586,0 0.5616921,-0.07615 0.8248005,-0.228435 0.26606461,-0.14905 0.49221961,-0.380725 0.67846491,-0.695026 0.076863,-0.132848 0.1389448,-0.283518 0.1862452,-0.452009 0.0473,-0.168491 0.082776,-0.341843 0.1064259,-0.520054 0.026606,-0.178212 0.044344,-0.354803 0.053213,-0.529775 0.00887,-0.178212 0.013303,-0.341843 0.013303,-0.490892 v -4.281941 z m 2.49657349,0 -1.11747159,0.388825 v 0.340223 H 1.5296248 v 2.697477 c 0,0.281898 0.028085,0.524914 0.084254,0.729048 0.059125,0.200893 0.1419011,0.367764 0.248327,0.500613 0.1093821,0.129608 0.2409363,0.225194 0.3946626,0.286758 0.1566825,0.0648 0.3325808,0.09721 0.5276947,0.09721 0.1330323,0 0.2690213,-0.0243 0.4079658,-0.0729 0.1419012,-0.04536 0.2764121,-0.102067 0.4035317,-0.170111 0.1300762,-0.07128 0.2498051,-0.14743 0.359187,-0.228436 0.1123386,-0.08101 0.2069396,-0.153909 0.2838023,-0.218714 v 0.568657 h 1.4411839 v -0.388825 l -0.399097,-0.02916 c -0.053213,-0.0065 -0.1005131,-0.02916 -0.1419011,-0.06805 -0.038431,-0.03888 -0.057648,-0.0891 -0.057648,-0.150669 v -4.281941 H 4.7090973 l -1.1086028,0.388825 v 0.340223 h 0.6385552 v 3.334178 c -0.053213,0.02916 -0.1182508,0.06157 -0.1951141,0.09721 -0.073907,0.0324 -0.153726,0.0648 -0.2394582,0.09721 -0.085731,0.02916 -0.1758978,0.05346 -0.2704988,0.0729 -0.094601,0.01944 -0.1877233,0.02916 -0.2793681,0.02916 -0.1596388,0 -0.2956273,-0.0243 -0.4079659,-0.07291 -0.112338,-0.05184 -0.2039826,-0.126368 -0.2749332,-0.223575 -0.067994,-0.09721 -0.118251,-0.215474 -0.15077,-0.354803 -0.029563,-0.139329 -0.044344,-0.296479 -0.044344,-0.47145 v -3.236973 z m 16.0658714,1.443515 c 0.144857,0 0.280846,0.03726 0.407966,0.111787 0.127119,0.07128 0.236502,0.170111 0.328146,0.29648 0.0946,0.123128 0.168508,0.268937 0.221721,0.437428 0.05617,0.168491 0.08425,0.348323 0.08425,0.539496 0,0.191172 -0.02808,0.372624 -0.08425,0.544356 -0.05321,0.16849 -0.12712,0.31592 -0.221721,0.442288 -0.09164,0.126369 -0.201027,0.226815 -0.328146,0.30134 -0.12712,0.07128 -0.263109,0.106927 -0.407966,0.106927 -0.141901,0 -0.276412,-0.03564 -0.403532,-0.106927 -0.127119,-0.07453 -0.239458,-0.174971 -0.337015,-0.30134 -0.0946,-0.126368 -0.169986,-0.273798 -0.226155,-0.442288 -0.05321,-0.171732 -0.07982,-0.353184 -0.07982,-0.544356 0,-0.191173 0.02661,-0.371005 0.07982,-0.539496 0.05617,-0.168491 0.131555,-0.3143 0.226155,-0.437428 0.09756,-0.126369 0.209896,-0.225195 0.337015,-0.29648 0.12712,-0.07453 0.261631,-0.111787 0.403532,-0.111787 z"
     id="text841"
     inkscape:connector-curvature="0" />
</svg>
