<?xml version="1.0" encoding="UTF-8" standalone="no"?>
<svg
   xmlns:dc="http://purl.org/dc/elements/1.1/"
   xmlns:cc="http://creativecommons.org/ns#"
   xmlns:rdf="http://www.w3.org/1999/02/22-rdf-syntax-ns#"
   xmlns:svg="http://www.w3.org/2000/svg"
   xmlns="http://www.w3.org/2000/svg"
   xmlns:sodipodi="http://sodipodi.sourceforge.net/DTD/sodipodi-0.dtd"
   xmlns:inkscape="http://www.inkscape.org/namespaces/inkscape"
   id="svg4306"
   width="22"
   height="22"
   version="1.1"
   style="enable-background:new"
   sodipodi:docname="maximize.svg"
   inkscape:version="0.92.4 (5da689c313, 2019-01-14)">
  <metadata
     id="metadata24">
    <rdf:RDF>
      <cc:Work
         rdf:about="">
        <dc:format>image/svg+xml</dc:format>
        <dc:type
           rdf:resource="http://purl.org/dc/dcmitype/StillImage" />
        <dc:title></dc:title>
      </cc:Work>
    </rdf:RDF>
  </metadata>
  <defs
     id="defs22" />
  <style
     type="text/css"
     id="current-color-scheme">
      .ColorScheme-Text {
        color:#31363b;
        stop-color:#31363b;
      }
      .ColorScheme-Background {
        color:#eff0f1;
        stop-color:#eff0f1;
      }
      .ColorScheme-Highlight {
        color:#3daee9;
        stop-color:#3daee9;
      }
      .ColorScheme-ViewText {
        color:#31363b;
        stop-color:#31363b;
      }
      .ColorScheme-ViewBackground {
        color:#fcfcfc;
        stop-color:#fcfcfc;
      }
      .ColorScheme-ViewHover {
        color:#93cee9;
        stop-color:#93cee9;
      }
      .ColorScheme-ViewFocus{
        color:#3daee9;
        stop-color:#3daee9;
      }
      .ColorScheme-ButtonText {
        color:#31363b;
        stop-color:#31363b;
      }
      .ColorScheme-ButtonBackground {
        color:#eff0f1;
        stop-color:#eff0f1;
      }
      .ColorScheme-ButtonHover {
        color:#93cee9;
        stop-color:#93cee9;
      }
      .ColorScheme-ButtonFocus{
        color:#3daee9;
        stop-color:#3daee9;
      }
      </style>
  <sodipodi:namedview
     pagecolor="#ffffff"
     bordercolor="#666666"
     borderopacity="1"
     objecttolerance="10"
     gridtolerance="10"
     guidetolerance="10"
     inkscape:pageopacity="0"
     inkscape:pageshadow="2"
     inkscape:window-width="1366"
     inkscape:window-height="700"
     id="namedview20"
     showgrid="true"
     inkscape:zoom="2.6477273"
     inkscape:cx="11"
     inkscape:cy="11"
     inkscape:window-x="0"
     inkscape:window-y="0"
     inkscape:window-maximized="1"
     inkscape:current-layer="svg4306"
     showguides="true"
     inkscape:guide-bbox="true" />
  <g
     id="g4778-2-68"
     transform="translate(3,-17.13281)"
     style="fill:#ffffff;fill-opacity:1">
    <g
       style="display:inline;fill:#ffffff;fill-opacity:1"
       id="layer9-9-4-4"
       transform="translate(-60,-518)" />
    <g
       id="layer10-2-1-8"
       transform="translate(-60,-518)"
       style="fill:#ffffff;fill-opacity:1" />
    <g
       id="layer11-16-4-9"
       transform="translate(-60,-518)"
       style="fill:#ffffff;fill-opacity:1" />
    <g
       transform="matrix(0.75,0,0,0.75,2,2.0546875)"
       id="g2996-76-5"
       style="fill:#ffffff;fill-opacity:1">
      <g
         transform="translate(-60,-518)"
         id="layer12-4-5-7"
         style="fill:#ffffff;fill-opacity:1">
        <g
           transform="translate(19,-242)"
           id="layer4-4-1-9-5"
           style="display:inline;fill:#ffffff;fill-opacity:1" />
      </g>
    </g>
    <g
       id="layer13-2-6-11"
       transform="translate(-60,-518)"
       style="fill:#ffffff;fill-opacity:1" />
    <g
       id="layer14-4-0-33"
       transform="translate(-60,-518)"
       style="fill:#ffffff;fill-opacity:1" />
    <g
       id="layer15-7-3-0"
       transform="translate(-60,-518)"
       style="fill:#ffffff;fill-opacity:1" />
  </g>
  <g
     transform="translate(-1423,-264)"
     style="display:inline;opacity:1"
     id="g4490-2-96">
    <g
       id="g4092-0-6-83"
       style="display:inline"
       transform="translate(58)" />
  </g>
  <g
     id="hover-center"
     inkscape:label="">
    <path
       id="path883"
       d="M 11,0.042969 C 4.94829,0.042969 0.042969,4.948424 0.042969,11 0.042969,17.051809 4.94829,21.957031 11,21.957031 17.051736,21.957031 21.957031,17.051809 21.957031,11 21.957031,4.948424 17.051736,0.042969 11,0.042969 Z"
       style="opacity:0.00100002;fill:#000000;fill-opacity:1;fill-rule:evenodd;stroke:none;stroke-width:0.02563604;enable-background:new"
       inkscape:connector-curvature="0" />
    <path
       id="path4068-7-5-9-6"
       class="ColorScheme-Highlight"
       d="m 11,3 a 8,8 0 0 0 -8,8 8,8 0 0 0 8,8 8,8 0 0 0 8,-8 8,8 0 0 0 -8,-8 z M 9.6272321,7.5714286 h 3.8660719 c 0.514629,0 0.93241,0.4206045 0.935267,0.9352674 v 3.866072 z M 7.5625,9.620536 12.379464,14.437499 H 8.5 c -0.5147429,0 -0.9375,-0.422836 -0.9375,-0.937499 z"
       style="opacity:1;fill:currentColor;fill-opacity:1"
       inkscape:connector-curvature="0" />
  </g>
  <g
     style="enable-background:new"
     id="deactivated-center"
     inkscape:label=""
     transform="translate(66)">
    <path
       id="path883-62"
       d="M 11,0.042969 C 4.94829,0.042969 0.042969,4.948424 0.042969,11 0.042969,17.051809 4.94829,21.957031 11,21.957031 17.051736,21.957031 21.957031,17.051809 21.957031,11 21.957031,4.948424 17.051736,0.042969 11,0.042969 Z"
       style="opacity:0.00100002;fill:#000000;fill-opacity:1;fill-rule:evenodd;stroke:none;stroke-width:0.02563604;enable-background:new"
       inkscape:connector-curvature="0" />
    <path
       id="path4068-7-5-9-6-91"
       class="ColorScheme-ViewText"
       d="m 11,3 a 8,8 0 0 0 -8,8 8,8 0 0 0 8,8 8,8 0 0 0 8,-8 8,8 0 0 0 -8,-8 z M 9.6272321,7.5714286 h 3.8660719 c 0.514629,0 0.93241,0.4206045 0.935267,0.9352674 v 3.866072 z M 7.5625,9.620536 12.379464,14.437499 H 8.5 c -0.5147429,0 -0.9375,-0.422836 -0.9375,-0.937499 z"
       style="opacity:1;fill:currentColor;fill-opacity:1"
       inkscape:connector-curvature="0" />
  </g>
  <g
     style="enable-background:new"
     id="inactive-center"
     inkscape:label=""
     transform="translate(44)">
    <path
       id="path883-7"
       d="M 11,0.042969 C 4.94829,0.042969 0.042969,4.948424 0.042969,11 0.042969,17.051809 4.94829,21.957031 11,21.957031 17.051736,21.957031 21.957031,17.051809 21.957031,11 21.957031,4.948424 17.051736,0.042969 11,0.042969 Z"
       style="opacity:0.00100002;fill:#000000;fill-opacity:1;fill-rule:evenodd;stroke:none;stroke-width:0.02563604;enable-background:new"
       inkscape:connector-curvature="0" />
    <path
       id="path4068-7-5-9-6-09"
       class="ColorScheme-ViewText"
       d="m 11,3 a 8,8 0 0 0 -8,8 8,8 0 0 0 8,8 8,8 0 0 0 8,-8 8,8 0 0 0 -8,-8 z M 9.6272321,7.5714286 h 3.8660719 c 0.514629,0 0.93241,0.4206045 0.935267,0.9352674 v 3.866072 z M 7.5625,9.620536 12.379464,14.437499 H 8.5 c -0.5147429,0 -0.9375,-0.422836 -0.9375,-0.937499 z"
       style="opacity:1;fill:currentColor;fill-opacity:1"
       inkscape:connector-curvature="0" />
  </g>
  <g
     style="enable-background:new"
     id="pressed-center"
     inkscape:label=""
     transform="translate(22)">
    <path
       id="path883-0"
       d="M 11,0.042969 C 4.94829,0.042969 0.042969,4.948424 0.042969,11 0.042969,17.051809 4.94829,21.957031 11,21.957031 17.051736,21.957031 21.957031,17.051809 21.957031,11 21.957031,4.948424 17.051736,0.042969 11,0.042969 Z"
       style="opacity:0.00100002;fill:#000000;fill-opacity:1;fill-rule:evenodd;stroke:none;stroke-width:0.02563604;enable-background:new"
       inkscape:connector-curvature="0" />
    <path
       id="path4068-7-5-9-6-6"
       class="ColorScheme-ButtonFocus"
       d="m 11,3 a 8,8 0 0 0 -8,8 8,8 0 0 0 8,8 8,8 0 0 0 8,-8 8,8 0 0 0 -8,-8 z M 9.6272321,7.5714286 h 3.8660719 c 0.514629,0 0.93241,0.4206045 0.935267,0.9352674 v 3.866072 z M 7.5625,9.620536 12.379464,14.437499 H 8.5 c -0.5147429,0 -0.9375,-0.422836 -0.9375,-0.937499 z"
       style="opacity:1;fill:currentColor;fill-opacity:1"
       inkscape:connector-curvature="0" />
  </g>
  <g
     id="active-center"
     inkscape:label=""
     transform="translate(0,22)">
    <path
       id="path883-1"
       d="m -11,-21.957031 c -6.05171,0 -10.957031,4.905455 -10.957031,10.957031 0,6.051809 4.905321,10.957031 10.957031,10.957031 6.051736,0 10.957031,-4.905222 10.957031,-10.957031 0,-6.051576 -4.905295,-10.957031 -10.957031,-10.957031 z"
       style="opacity:0.00100002;fill:#000000;fill-opacity:1;fill-rule:evenodd;stroke:none;stroke-width:0.02563604;enable-background:new"
       inkscape:connector-curvature="0" />
    <path
       id="path915"
       class="ColorScheme-ViewText"
       d="m -12.373047,-14.427734 4.8007814,4.8007809 v -3.8671879 c -0.00286,-0.514663 -0.4189648,-0.933593 -0.9335938,-0.933593 z m -2.064453,2.048828 V -8.5 c 0,0.514663 0.422757,0.9375 0.9375,0.9375 h 3.8789062 z"
       style="opacity:1;fill:currentColor;fill-opacity:1"
       inkscape:connector-curvature="0" />
  </g>
  <path
     style="font-style:normal;font-variant:normal;font-weight:normal;font-stretch:normal;font-size:16px;line-height:1.25;font-family:'Abyssinica SIL';-inkscape-font-specification:'Abyssinica SIL';letter-spacing:0px;word-spacing:0px;fill:#ffffff;fill-opacity:1;stroke:none;stroke-width:0.59423786"
     d="m 2.7205233,-36.539062 c -0.076863,0 -0.1492918,0.0162 -0.2172861,0.0486 -0.067994,0.02916 -0.1285979,0.07129 -0.1818109,0.126368 -0.050257,0.05508 -0.090166,0.119888 -0.1197291,0.194413 -0.029563,0.07452 -0.044344,0.15391 -0.044344,0.238156 0,0.08425 0.014781,0.16525 0.044344,0.243015 0.029563,0.07453 0.069473,0.139329 0.1197291,0.194413 0.053213,0.05508 0.1138166,0.09883 0.1818109,0.131228 0.067994,0.0324 0.140423,0.0486 0.2172861,0.0486 0.076863,0 0.1492919,-0.0162 0.2172862,-0.0486 0.067994,-0.0324 0.1271197,-0.07614 0.1773764,-0.131228 0.050257,-0.05508 0.088688,-0.119887 0.1152947,-0.194413 0.029563,-0.07776 0.044344,-0.15877 0.044344,-0.243015 0,-0.08425 -0.014781,-0.163631 -0.044344,-0.238156 -0.026606,-0.07453 -0.065038,-0.139329 -0.1152947,-0.194413 -0.050257,-0.05508 -0.1093822,-0.09721 -0.1773764,-0.126368 -0.067994,-0.0324 -0.1404231,-0.0486 -0.2172862,-0.0486 z m 18.7531247,0.729047 c -0.310409,0 -0.597167,0.05832 -0.860276,0.174972 -0.260152,0.116647 -0.484829,0.30458 -0.67403,0.563797 -0.186246,0.259217 -0.332581,0.599439 -0.439007,1.020667 -0.106426,0.417987 -0.159639,0.928321 -0.159639,1.531 0,0.60592 0.05469,1.104913 0.164073,1.496978 0.109382,0.388826 0.255718,0.696646 0.439007,0.923461 0.183289,0.226814 0.394663,0.385585 0.634121,0.476311 0.239458,0.08749 0.489263,0.131228 0.749415,0.131228 0.260152,0 0.512914,-0.04212 0.758285,-0.126367 0.248327,-0.08425 0.467091,-0.213854 0.656292,-0.388826 0.189202,-0.174972 0.34145,-0.396926 0.456744,-0.665864 0.115295,-0.268938 0.172943,-0.588099 0.172943,-0.957483 0,-0.246256 -0.02661,-0.46659 -0.07982,-0.661003 -0.05026,-0.194413 -0.119729,-0.364524 -0.208417,-0.510333 -0.08573,-0.14905 -0.187724,-0.273798 -0.305974,-0.374245 -0.115295,-0.103687 -0.23798,-0.187932 -0.368057,-0.252736 -0.130075,-0.0648 -0.263108,-0.111788 -0.399097,-0.14095 -0.135988,-0.02916 -0.266064,-0.04374 -0.390228,-0.04374 -0.162595,0 -0.311887,0.0162 -0.447875,0.0486 -0.135989,0.0324 -0.258674,0.07614 -0.368057,0.131228 -0.109381,0.05184 -0.20546,0.113408 -0.288236,0.184692 -0.08278,0.07128 -0.153726,0.14581 -0.212852,0.223575 0.04434,-0.447149 0.09904,-0.810053 0.164073,-1.088711 0.06799,-0.278659 0.149292,-0.495753 0.243893,-0.651283 0.0946,-0.15553 0.205461,-0.260837 0.332581,-0.31592 0.12712,-0.05508 0.270499,-0.08263 0.430138,-0.08263 0.138945,0 0.25424,0.02592 0.345884,0.07776 0.09164,0.05184 0.165551,0.118268 0.22172,0.199273 0.05617,0.07776 0.0946,0.166871 0.115295,0.267318 0.02365,0.09721 0.03548,0.191172 0.03548,0.281898 h 0.962267 c 0,-0.207373 -0.03991,-0.400166 -0.119728,-0.578378 -0.07982,-0.178212 -0.193636,-0.333742 -0.34145,-0.466591 -0.147814,-0.132848 -0.32519,-0.236535 -0.53213,-0.31106 -0.206939,-0.07776 -0.43605,-0.116648 -0.687333,-0.116648 z m -10.008466,0.184693 c -0.03548,0.05184 -0.103469,0.124748 -0.203983,0.218714 -0.100513,0.09397 -0.212852,0.192793 -0.337015,0.296479 -0.124164,0.100447 -0.252762,0.196033 -0.385794,0.286759 -0.130076,0.09073 -0.245371,0.15877 -0.345884,0.204134 v 0.957483 c 0.08869,-0.02916 0.192158,-0.06967 0.310409,-0.121509 0.118251,-0.05508 0.23798,-0.115027 0.359187,-0.179832 0.121207,-0.06804 0.236502,-0.139329 0.345884,-0.213854 0.112339,-0.07776 0.206939,-0.15553 0.283802,-0.233295 v 4.918642 h 0.926792 v -6.133721 z m 5.241474,0 -2.314763,3.635518 v 1.185918 h 2.669516 v 1.312285 h 0.917923 v -1.312285 h 0.598645 v -0.889439 h -0.598645 v -3.931997 z m 9.808917,0 -2.314763,3.635518 v 1.185918 h 2.669516 v 1.312285 h 0.917923 v -1.312285 h 0.598645 v -0.889439 h -0.598645 v -3.931997 z m -9.454164,0.738768 v 3.193229 h -1.982182 z m 9.808917,0 v 3.193229 h -1.982182 z m -24.0655489,0.476311 -1.1174715,0.379105 v 0.330502 h 0.6429896 v 4.418029 c 0,0.191173 -0.00739,0.372624 -0.022172,0.544356 -0.011825,0.174971 -0.035475,0.332122 -0.070951,0.471451 -0.032519,0.142569 -0.076863,0.264077 -0.1330323,0.364524 -0.056169,0.103687 -0.1256417,0.181452 -0.2084173,0.233295 l -0.8824478,-0.665863 c -0.0443441,0.0162 -0.0901664,0.03888 -0.13746678,0.06804 -0.0473004,0.0324 -0.0886882,0.07128 -0.12416352,0.116647 -0.0384316,0.0486 -0.0694724,0.103687 -0.0931226,0.165252 -0.0236502,0.0648 -0.0354753,0.139329 -0.0354753,0.223574 0,0.09397 0.0192158,0.174971 0.0576473,0.243016 0.0354753,0.07128 0.0857319,0.129608 0.15076998,0.174972 0.0620818,0.04536 0.13451044,0.07776 0.21728622,0.09721 0.082776,0.02268 0.1714638,0.03402 0.2660646,0.03402 0.2867586,0 0.5616921,-0.07615 0.8248005,-0.228435 0.2660646,-0.14905 0.4922196,-0.380725 0.6784649,-0.695026 0.076863,-0.132848 0.1389448,-0.283518 0.1862452,-0.452009 0.0473,-0.168491 0.082776,-0.341843 0.1064259,-0.520054 0.026606,-0.178212 0.044344,-0.354803 0.053213,-0.529775 0.00887,-0.178212 0.013303,-0.341843 0.013303,-0.490892 v -4.281941 z m 2.4965735,0 -1.1174716,0.388825 v 0.340223 h 0.6341208 v 2.697477 c 0,0.281898 0.028085,0.524914 0.084254,0.729048 0.059125,0.200893 0.1419011,0.367764 0.248327,0.500613 0.1093821,0.129608 0.2409363,0.225194 0.3946626,0.286758 0.1566825,0.0648 0.3325808,0.09721 0.5276947,0.09721 0.1330323,0 0.2690213,-0.0243 0.4079658,-0.0729 0.1419012,-0.04536 0.2764121,-0.102067 0.4035317,-0.170111 0.1300762,-0.07128 0.2498051,-0.14743 0.359187,-0.228436 0.1123386,-0.08101 0.2069396,-0.153909 0.2838023,-0.218714 v 0.568657 h 1.4411839 v -0.388825 l -0.399097,-0.02916 c -0.053213,-0.0065 -0.1005131,-0.02916 -0.1419011,-0.06805 -0.038431,-0.03888 -0.057648,-0.0891 -0.057648,-0.150669 v -4.281941 H 7.9974723 l -1.1086028,0.388825 v 0.340223 h 0.6385552 v 3.334178 c -0.053213,0.02916 -0.1182508,0.06157 -0.1951141,0.09721 -0.073907,0.0324 -0.153726,0.0648 -0.2394582,0.09721 -0.085731,0.02916 -0.1758978,0.05346 -0.2704988,0.0729 -0.094601,0.01944 -0.1877233,0.02916 -0.2793681,0.02916 -0.1596388,0 -0.2956273,-0.0243 -0.4079659,-0.07291 -0.112338,-0.05184 -0.2039826,-0.126368 -0.2749332,-0.223575 -0.067994,-0.09721 -0.118251,-0.215474 -0.15077,-0.354803 -0.029563,-0.139329 -0.044344,-0.296479 -0.044344,-0.47145 v -3.236973 z m 16.0658714,1.443515 c 0.144857,0 0.280846,0.03726 0.407966,0.111787 0.127119,0.07128 0.236502,0.170111 0.328146,0.29648 0.0946,0.123128 0.168508,0.268937 0.221721,0.437428 0.05617,0.168491 0.08425,0.348323 0.08425,0.539496 0,0.191172 -0.02808,0.372624 -0.08425,0.544356 -0.05321,0.16849 -0.12712,0.31592 -0.221721,0.442288 -0.09164,0.126369 -0.201027,0.226815 -0.328146,0.30134 -0.12712,0.07128 -0.263109,0.106927 -0.407966,0.106927 -0.141901,0 -0.276412,-0.03564 -0.403532,-0.106927 -0.127119,-0.07453 -0.239458,-0.174971 -0.337015,-0.30134 -0.0946,-0.126368 -0.169986,-0.273798 -0.226155,-0.442288 -0.05321,-0.171732 -0.07982,-0.353184 -0.07982,-0.544356 0,-0.191173 0.02661,-0.371005 0.07982,-0.539496 0.05617,-0.168491 0.131555,-0.3143 0.226155,-0.437428 0.09756,-0.126369 0.209896,-0.225195 0.337015,-0.29648 0.12712,-0.07453 0.261631,-0.111787 0.403532,-0.111787 z"
     id="text841"
     inkscape:connector-curvature="0" />
</svg>
